<svg width="100" height="100" viewBox="0 0 100 100" fill="none" xmlns="http://www.w3.org/2000/svg">
<path d="M1.94779 0.253254C1.54618 0.409631 1.08434 0.62465 0.923695 0.741934C0.401606 1.17197 0 2.28616 0 3.28307C0 4.10405 8.45381 41.5173 8.6747 41.7128C8.73494 41.7715 49.6988 48.6912 54.6787 49.4926C56.0843 49.7272 57.2289 49.9617 57.2289 50.0204C57.2289 50.079 56.0843 50.3136 54.6787 50.5481C49.6787 51.3496 8.73494 58.2693 8.6747 58.3279C8.45381 58.5234 0 95.9367 0 96.7577C0 99.0642 1.76707 100.452 3.99598 99.8657C5.02008 99.592 98.3333 53.0502 98.9558 52.4833C99.6988 51.8383 100 51.115 100 50.0204C100 48.9257 99.6988 48.2025 98.9558 47.5574C98.3735 47.0297 5.08032 0.448726 4.05622 0.175065C3.11245 -0.079048 2.89157 -0.0595008 1.94779 0.253254Z" fill="white"/>
</svg>
